<svg xmlns="http://www.w3.org/2000/svg" viewBox="0 0 32 32" fill="none"><path d="M16 32c8.837 0 16-7.163 16-16S24.837 0 16 0 0 7.163 0 16s7.163 16 16 16z" fill="#FFCA28"/><path d="M24.98 13.02a1 1 0 0 1-1-1c0-1.102-.896-2-2-2s-2 .898-2 2a1 1 0 0 1-2 0c0-2.206 1.794-4 4-4s4 1.794 4 4a1 1 0 0 1-1 1zm-12 0a1 1 0 0 1-1-1c0-1.102-.898-2-2-2-1.102 0-2 .898-2 2a1 1 0 0 1-2 0c0-2.206 1.794-4 4-4s4 1.794 4 4a1 1 0 0 1-1 1z" fill="#6D4C41"/><path d="M27.356 18.418a1.001 1.001 0 0 0-.796-.398H5.4a.994.994 0 0 0-.796.396.998.998 0 0 0-.168.876c1.446 5.138 6.194 8.728 11.542 8.728s10.096-3.59 11.542-8.728a.991.991 0 0 0-.164-.874z" fill="#FAFAFA"/></svg>