<svg xmlns="http://www.w3.org/2000/svg" viewBox="0 0 32 32" fill="none"><path d="M16 32c8.837 0 16-7.163 16-16S24.837 0 16 0 0 7.163 0 16s7.163 16 16 16z" fill="#FFCA28"/><path d="M27.376 18.396A.996.996 0 0 0 26.58 18H5.42a.994.994 0 0 0-.796.396.995.995 0 0 0-.166.876C5.904 24.41 10.65 28 16 28s10.096-3.59 11.542-8.728a1.001 1.001 0 0 0-.166-.876z" fill="#FAFAFA"/><path d="M11.8 8c-.634 0-1.264.18-1.8.502A3.522 3.522 0 0 0 8.2 8C6.406 8 5 9.334 5 11.04c0 1.858 2.308 3.456 4.47 4.808a.993.993 0 0 0 1.052.004C12.848 14.43 15 12.862 15 11.04 15 9.334 13.594 8 11.8 8zm13 0c-.634 0-1.264.18-1.8.502A3.528 3.528 0 0 0 21.2 8C19.404 8 18 9.334 18 11.04c0 1.86 2.306 3.458 4.47 4.808a.995.995 0 0 0 1.052.006C25.848 14.43 28 12.862 28 11.04 28 9.334 26.596 8 24.8 8z" fill="#F44336"/></svg>